<svg width="300" height="300" version="1.1" xmlns="http://www.w3.org/2000/svg">
<path fill="rgb(181,136,99)" stroke="rgb(181,136,99)" stroke-width="1" opacity="1" d="M 0 0 L 300 0 L 300 300 L 223 299.5 L 234 262.5 L 252 214 Q 246 216.3 248 209.5 L 241 192.5 L 232.5 183 Q 219.5 172.2 196 173 L 197 168.5 L 195 160.5 L 190.5 155 L 183.5 152 L 169 152 L 169 111 L 210.5 111 L 217 106.5 L 219 102.5 L 219 78.5 L 214.5 72 L 209.5 70 L 169 70 L 169 24.5 L 165.5 19 L 159.5 16 L 139.5 16 L 132 21.5 L 130 26.5 L 130 70 L 89.5 70 L 82 75.5 L 80 79.5 L 80 100.5 L 81 104.5 L 86.5 110 L 88.5 111 L 130 111 L 130 152 L 115.5 152 Q 109 153.5 106 158.5 Q 101.8 163.6 103 173 L 92.5 173 L 76.5 177 Q 65.6 182.1 59 191.5 Q 52.7 201 51 214 Q 45.8 211.9 47 216.5 Q 66.6 253.9 78 299.5 L 0 300 L 0 0 Z "/>
<path fill="rgb(255,255,255)" stroke="rgb(255,255,255)" stroke-width="1" opacity="1" d="M 139.5 17 L 160.5 17 L 167 22.5 L 168 24.5 L 168 71 L 210.5 71 L 217 76.5 L 218 78.5 L 218 103.5 L 214.5 108 L 210.5 110 L 168 110 L 168 153 L 184.5 153 L 194 160.5 L 196 171.5 L 195 174 Q 227.5 172.8 240 192.5 Q 245.9 202.3 248 215 Q 251.7 213.5 251 216.5 L 233 262.5 L 225 288.5 L 223 300 L 79.5 300 L 78 298.5 L 77 291.5 L 69 265.5 L 48 215 Q 53.6 217.2 52 211.5 Q 55.9 192.9 68.5 183 Q 81.1 172.9 104 174 L 104 164.5 L 109.5 156 L 115.5 153 L 131 153 L 131 110 L 88.5 110 L 83 105.5 L 81 101.5 L 81 79.5 L 85.5 73 L 89.5 71 L 131 71 L 131 25.5 L 135.5 19 L 139.5 17 Z "/>
</svg>